# MagicaVoxel @ Ephtracy

# group
g LawnModel-2

# material
mtllib LawnModel-2.mtl
usemtl palette

# normals
vn -1 0 0
vn 1 0 0
vn 0 0 1
vn 0 0 -1
vn 0 -1 0
vn 0 1 0

# texcoords
vt 0.00195313 0.5
vt 0.0566406 0.5
vt 0.205078 0.5

# verts
v -1.5 1 1
v -1.5 1 -0
v -1.5 1 -1
v -1.5 2 1
v -1.5 2 -0
v -1.5 2 -1
v -0.5 0 1
v -0.5 0 -1
v -0.5 1 1
v -0.5 1 -0
v -0.5 1 -1
v 0.5 1 1
v 0.5 1 -0
v 0.5 1 -1
v 0.5 2 1
v 0.5 2 -0
v 0.5 2 -1
v -0.5 1 1
v -0.5 1 -0
v -0.5 1 -1
v -0.5 2 1
v -0.5 2 -0
v -0.5 2 -1
v 0.5 0 1
v 0.5 0 -1
v 0.5 1 1
v 0.5 1 -0
v 0.5 1 -1
v 1.5 1 1
v 1.5 1 -0
v 1.5 1 -1
v 1.5 2 1
v 1.5 2 -0
v 1.5 2 -1
v -1.5 1 1
v -1.5 2 1
v -0.5 0 1
v -0.5 1 1
v -0.5 2 1
v 0.5 0 1
v 0.5 1 1
v 0.5 2 1
v 1.5 1 1
v 1.5 2 1
v -1.5 1 -1
v -1.5 2 -1
v -0.5 0 -1
v -0.5 1 -1
v -0.5 2 -1
v 0.5 0 -1
v 0.5 1 -1
v 0.5 2 -1
v 1.5 1 -1
v 1.5 2 -1
v -0.5 0 1
v 0.5 0 1
v -0.5 0 -1
v 0.5 0 -1
v -1.5 1 1
v -0.5 1 1
v 0.5 1 1
v 1.5 1 1
v -1.5 1 -0
v -0.5 1 -0
v 0.5 1 -0
v 1.5 1 -0
v -1.5 1 -1
v -0.5 1 -1
v 0.5 1 -1
v 1.5 1 -1
v -0.5 1 1
v 0.5 1 1
v -0.5 1 -0
v 0.5 1 -0
v -0.5 1 -1
v 0.5 1 -1
v -1.5 2 1
v -0.5 2 1
v 0.5 2 1
v 1.5 2 1
v -1.5 2 -0
v -0.5 2 -0
v 0.5 2 -0
v 1.5 2 -0
v -1.5 2 -1
v -0.5 2 -1
v 0.5 2 -1
v 1.5 2 -1

# faces
f 4/3/1 2/3/1 1/3/1
f 5/2/1 3/2/1 2/2/1
f 5/3/1 2/3/1 4/3/1
f 6/2/1 3/2/1 5/2/1
f 9/1/1 8/1/1 7/1/1
f 10/1/1 8/1/1 9/1/1
f 11/1/1 8/1/1 10/1/1
f 15/3/1 13/3/1 12/3/1
f 16/2/1 14/2/1 13/2/1
f 16/3/1 13/3/1 15/3/1
f 17/2/1 14/2/1 16/2/1
f 18/3/2 19/3/2 21/3/2
f 19/2/2 20/2/2 22/2/2
f 21/3/2 19/3/2 22/3/2
f 22/2/2 20/2/2 23/2/2
f 24/1/2 25/1/2 26/1/2
f 26/1/2 25/1/2 27/1/2
f 27/1/2 25/1/2 28/1/2
f 29/3/2 30/3/2 32/3/2
f 30/2/2 31/2/2 33/2/2
f 32/3/2 30/3/2 33/3/2
f 33/2/2 31/2/2 34/2/2
f 38/3/3 36/3/3 35/3/3
f 39/3/3 36/3/3 38/3/3
f 40/1/3 38/1/3 37/1/3
f 41/1/3 38/1/3 40/1/3
f 43/3/3 42/3/3 41/3/3
f 44/3/3 42/3/3 43/3/3
f 45/2/4 46/2/4 48/2/4
f 48/2/4 46/2/4 49/2/4
f 47/1/4 48/1/4 50/1/4
f 50/1/4 48/1/4 51/1/4
f 51/2/4 52/2/4 53/2/4
f 53/2/4 52/2/4 54/2/4
f 57/1/5 56/1/5 55/1/5
f 58/1/5 56/1/5 57/1/5
f 63/3/5 60/3/5 59/3/5
f 64/3/5 60/3/5 63/3/5
f 65/3/5 62/3/5 61/3/5
f 66/3/5 62/3/5 65/3/5
f 67/2/5 64/2/5 63/2/5
f 68/2/5 64/2/5 67/2/5
f 69/2/5 66/2/5 65/2/5
f 70/2/5 66/2/5 69/2/5
f 71/1/6 72/1/6 73/1/6
f 73/1/6 72/1/6 74/1/6
f 73/1/6 74/1/6 75/1/6
f 75/1/6 74/1/6 76/1/6
f 77/3/6 78/3/6 81/3/6
f 81/3/6 78/3/6 82/3/6
f 79/3/6 80/3/6 83/3/6
f 83/3/6 80/3/6 84/3/6
f 81/2/6 82/2/6 85/2/6
f 85/2/6 82/2/6 86/2/6
f 83/2/6 84/2/6 87/2/6
f 87/2/6 84/2/6 88/2/6
