# MagicaVoxel @ Ephtracy

# group
g Chamomile

# material
mtllib Chamomile.mtl
usemtl palette

# normals
vn -1 0 0
vn 1 0 0
vn 0 0 1
vn 0 0 -1
vn 0 -1 0
vn 0 1 0

# texcoords
vt 0.0566406 0.5
vt 0.373047 0.5
vt 0.583984 0.5
vt 0.599609 0.5

# verts
v -4.5 9 1
v -4.5 9 -0
v -4.5 10 1
v -4.5 10 -0
v -3.5 5 -1
v -3.5 5 -2
v -3.5 6 -1
v -3.5 6 -2
v -3.5 7 1
v -3.5 7 -0
v -3.5 9 2
v -3.5 9 1
v -3.5 9 -0
v -3.5 9 -1
v -3.5 10 2
v -3.5 10 1
v -3.5 10 -0
v -3.5 10 -1
v -2.5 4 1
v -2.5 4 -1
v -2.5 5 -0
v -2.5 5 -1
v -2.5 7 1
v -2.5 7 -0
v -1.5 0 2
v -1.5 0 -0
v -1.5 1 2
v -1.5 1 1
v -1.5 4 1
v -1.5 4 -0
v -0.5 0 -0
v -0.5 0 -1
v -0.5 1 2
v -0.5 1 1
v -0.5 1 -0
v -0.5 1 -1
v -0.5 3 3
v -0.5 3 2
v -0.5 3 1
v -0.5 7 3
v -0.5 7 2
v 0.5 1 -0
v 0.5 1 -1
v 0.5 2 -0
v 0.5 3 -0
v 0.5 3 -1
v 0.5 3 -2
v 0.5 5 -0
v 0.5 5 -1
v 0.5 6 -0
v 0.5 6 -1
v 0.5 7 4
v 0.5 7 3
v 0.5 7 -1
v 0.5 7 -2
v 0.5 8 4
v 0.5 8 3
v 1.5 6 1
v 1.5 6 -0
v 1.5 7 1
v 1.5 7 -0
v 1.5 7 -1
v 1.5 7 -2
v 1.5 9 -1
v 1.5 9 -2
v 1.5 10 -2
v 1.5 10 -3
v 1.5 11 -2
v 1.5 11 -3
v 2.5 9 -2
v 2.5 9 -3
v 2.5 10 -1
v 2.5 10 -2
v 2.5 10 -3
v 2.5 10 -4
v 2.5 11 -1
v 2.5 11 -2
v 2.5 11 -3
v 2.5 11 -4
v -2.5 7 1
v -2.5 7 -0
v -2.5 9 2
v -2.5 9 1
v -2.5 9 -0
v -2.5 9 -1
v -2.5 10 2
v -2.5 10 1
v -2.5 10 -0
v -2.5 10 -1
v -1.5 4 1
v -1.5 4 -0
v -1.5 4 -1
v -1.5 5 -0
v -1.5 5 -1
v -1.5 5 -2
v -1.5 6 -1
v -1.5 6 -2
v -1.5 7 1
v -1.5 7 -0
v -1.5 9 1
v -1.5 9 -0
v -1.5 10 1
v -1.5 10 -0
v -0.5 2 1
v -0.5 2 -0
v -0.5 3 1
v -0.5 4 1
v -0.5 4 -0
v 0.5 0 2
v 0.5 0 1
v 0.5 0 -0
v 0.5 0 -1
v 0.5 1 1
v 0.5 1 -0
v 0.5 1 -1
v 0.5 2 1
v 0.5 2 -0
v 0.5 3 3
v 0.5 3 2
v 0.5 3 1
v 0.5 7 3
v 0.5 7 2
v 1.5 0 1
v 1.5 0 -0
v 1.5 1 1
v 1.5 1 -0
v 1.5 1 -1
v 1.5 3 -0
v 1.5 3 -1
v 1.5 3 -2
v 1.5 5 -0
v 1.5 5 -1
v 1.5 6 -0
v 1.5 6 -1
v 1.5 7 4
v 1.5 7 3
v 1.5 7 -1
v 1.5 7 -2
v 1.5 8 4
v 1.5 8 3
v 2.5 6 1
v 2.5 6 -0
v 2.5 7 1
v 2.5 7 -0
v 2.5 7 -1
v 2.5 7 -2
v 2.5 9 -1
v 2.5 9 -2
v 3.5 9 -2
v 3.5 9 -3
v 3.5 10 -1
v 3.5 10 -2
v 3.5 10 -3
v 3.5 10 -4
v 3.5 11 -1
v 3.5 11 -2
v 3.5 11 -3
v 3.5 11 -4
v 4.5 10 -2
v 4.5 10 -3
v 4.5 11 -2
v 4.5 11 -3
v 0.5 7 4
v 0.5 8 4
v 1.5 7 4
v 1.5 8 4
v -0.5 3 3
v -0.5 7 3
v 0.5 3 3
v 0.5 7 3
v -3.5 9 2
v -3.5 10 2
v -2.5 9 2
v -2.5 10 2
v -1.5 0 2
v -1.5 1 2
v -0.5 1 2
v -0.5 3 2
v 0.5 0 2
v 0.5 3 2
v -4.5 9 1
v -4.5 10 1
v -3.5 7 1
v -3.5 9 1
v -3.5 10 1
v -2.5 4 1
v -2.5 7 1
v -2.5 9 1
v -2.5 10 1
v -1.5 1 1
v -1.5 4 1
v -1.5 7 1
v -1.5 9 1
v -1.5 10 1
v -0.5 1 1
v -0.5 3 1
v -0.5 4 1
v 0.5 0 1
v 0.5 1 1
v 1.5 0 1
v 1.5 1 1
v 1.5 6 1
v 1.5 7 1
v 2.5 6 1
v 2.5 7 1
v 0.5 1 -0
v 0.5 2 -0
v 0.5 3 -0
v 0.5 5 -0
v 0.5 6 -0
v 1.5 1 -0
v 1.5 3 -0
v 1.5 5 -0
v 1.5 6 -0
v -3.5 5 -1
v -3.5 6 -1
v -2.5 5 -1
v -1.5 5 -1
v -1.5 6 -1
v 0.5 3 -1
v 0.5 5 -1
v 0.5 6 -1
v 0.5 7 -1
v 1.5 3 -1
v 1.5 5 -1
v 1.5 6 -1
v 1.5 7 -1
v 1.5 9 -1
v 2.5 7 -1
v 2.5 9 -1
v 2.5 10 -1
v 2.5 11 -1
v 3.5 10 -1
v 3.5 11 -1
v 1.5 10 -2
v 1.5 11 -2
v 2.5 9 -2
v 2.5 10 -2
v 2.5 11 -2
v 3.5 9 -2
v 3.5 10 -2
v 3.5 11 -2
v 4.5 10 -2
v 4.5 11 -2
v 0.5 7 3
v 0.5 8 3
v 1.5 7 3
v 1.5 8 3
v -0.5 3 2
v -0.5 7 2
v 0.5 3 2
v 0.5 7 2
v -0.5 2 1
v -0.5 3 1
v 0.5 2 1
v 0.5 3 1
v -4.5 9 -0
v -4.5 10 -0
v -3.5 7 -0
v -3.5 9 -0
v -3.5 10 -0
v -2.5 5 -0
v -2.5 7 -0
v -2.5 9 -0
v -2.5 10 -0
v -1.5 0 -0
v -1.5 4 -0
v -1.5 5 -0
v -1.5 7 -0
v -1.5 9 -0
v -1.5 10 -0
v -0.5 0 -0
v -0.5 1 -0
v -0.5 2 -0
v -0.5 4 -0
v 0.5 0 -0
v 0.5 1 -0
v 0.5 2 -0
v 1.5 0 -0
v 1.5 1 -0
v 1.5 6 -0
v 1.5 7 -0
v 2.5 6 -0
v 2.5 7 -0
v -3.5 9 -1
v -3.5 10 -1
v -2.5 4 -1
v -2.5 5 -1
v -2.5 9 -1
v -2.5 10 -1
v -1.5 4 -1
v -1.5 5 -1
v -0.5 0 -1
v -0.5 1 -1
v 0.5 0 -1
v 0.5 1 -1
v 0.5 3 -1
v 1.5 1 -1
v 1.5 3 -1
v -3.5 5 -2
v -3.5 6 -2
v -1.5 5 -2
v -1.5 6 -2
v 0.5 3 -2
v 0.5 7 -2
v 1.5 3 -2
v 1.5 7 -2
v 1.5 9 -2
v 2.5 7 -2
v 2.5 9 -2
v 1.5 10 -3
v 1.5 11 -3
v 2.5 9 -3
v 2.5 10 -3
v 2.5 11 -3
v 3.5 9 -3
v 3.5 10 -3
v 3.5 11 -3
v 4.5 10 -3
v 4.5 11 -3
v 2.5 10 -4
v 2.5 11 -4
v 3.5 10 -4
v 3.5 11 -4
v -1.5 0 2
v 0.5 0 2
v -0.5 0 1
v 0.5 0 1
v 1.5 0 1
v -1.5 0 -0
v -0.5 0 -0
v 0.5 0 -0
v 1.5 0 -0
v -0.5 0 -1
v 0.5 0 -1
v 0.5 1 -0
v 1.5 1 -0
v 0.5 1 -1
v 1.5 1 -1
v -0.5 3 3
v 0.5 3 3
v -0.5 3 2
v 0.5 3 2
v 0.5 3 -1
v 1.5 3 -1
v 0.5 3 -2
v 1.5 3 -2
v -2.5 4 1
v -1.5 4 1
v -1.5 4 -0
v -2.5 4 -1
v -1.5 4 -1
v 0.5 5 -0
v 1.5 5 -0
v -3.5 5 -1
v -2.5 5 -1
v -1.5 5 -1
v 0.5 5 -1
v 1.5 5 -1
v -3.5 5 -2
v -1.5 5 -2
v 1.5 6 1
v 2.5 6 1
v 1.5 6 -0
v 2.5 6 -0
v 0.5 7 4
v 1.5 7 4
v 0.5 7 3
v 1.5 7 3
v -3.5 7 1
v -2.5 7 1
v -3.5 7 -0
v -2.5 7 -0
v 1.5 7 -1
v 2.5 7 -1
v 1.5 7 -2
v 2.5 7 -2
v -3.5 9 2
v -2.5 9 2
v -4.5 9 1
v -3.5 9 1
v -2.5 9 1
v -1.5 9 1
v -4.5 9 -0
v -3.5 9 -0
v -2.5 9 -0
v -1.5 9 -0
v -3.5 9 -1
v -2.5 9 -1
v 2.5 9 -2
v 3.5 9 -2
v 2.5 9 -3
v 3.5 9 -3
v 2.5 10 -1
v 3.5 10 -1
v 1.5 10 -2
v 2.5 10 -2
v 3.5 10 -2
v 4.5 10 -2
v 1.5 10 -3
v 2.5 10 -3
v 3.5 10 -3
v 4.5 10 -3
v 2.5 10 -4
v 3.5 10 -4
v -1.5 1 2
v -0.5 1 2
v -1.5 1 1
v -0.5 1 1
v 0.5 1 1
v 1.5 1 1
v -0.5 1 -0
v 0.5 1 -0
v 1.5 1 -0
v -0.5 1 -1
v 0.5 1 -1
v -0.5 2 1
v 0.5 2 1
v -0.5 2 -0
v 0.5 2 -0
v -0.5 3 2
v 0.5 3 2
v -0.5 3 1
v 0.5 3 1
v 0.5 3 -0
v 1.5 3 -0
v 0.5 3 -1
v 1.5 3 -1
v -1.5 4 1
v -0.5 4 1
v -1.5 4 -0
v -0.5 4 -0
v -2.5 5 -0
v -1.5 5 -0
v -2.5 5 -1
v -1.5 5 -1
v 0.5 6 -0
v 1.5 6 -0
v -3.5 6 -1
v -1.5 6 -1
v 0.5 6 -1
v 1.5 6 -1
v -3.5 6 -2
v -1.5 6 -2
v -0.5 7 3
v 0.5 7 3
v -0.5 7 2
v 0.5 7 2
v -2.5 7 1
v -1.5 7 1
v 1.5 7 1
v 2.5 7 1
v -2.5 7 -0
v -1.5 7 -0
v 1.5 7 -0
v 2.5 7 -0
v 0.5 7 -1
v 1.5 7 -1
v 0.5 7 -2
v 1.5 7 -2
v 0.5 8 4
v 1.5 8 4
v 0.5 8 3
v 1.5 8 3
v 1.5 9 -1
v 2.5 9 -1
v 1.5 9 -2
v 2.5 9 -2
v -3.5 10 2
v -2.5 10 2
v -4.5 10 1
v -3.5 10 1
v -2.5 10 1
v -1.5 10 1
v -4.5 10 -0
v -3.5 10 -0
v -2.5 10 -0
v -1.5 10 -0
v -3.5 10 -1
v -2.5 10 -1
v 2.5 11 -1
v 3.5 11 -1
v 1.5 11 -2
v 2.5 11 -2
v 3.5 11 -2
v 4.5 11 -2
v 1.5 11 -3
v 2.5 11 -3
v 3.5 11 -3
v 4.5 11 -3
v 2.5 11 -4
v 3.5 11 -4

# faces
f 3/4/1 2/4/1 1/4/1
f 4/4/1 2/4/1 3/4/1
f 7/3/1 6/3/1 5/3/1
f 8/3/1 6/3/1 7/3/1
f 12/3/1 10/3/1 9/3/1
f 13/3/1 10/3/1 12/3/1
f 15/4/1 12/4/1 11/4/1
f 16/4/1 12/4/1 15/4/1
f 17/4/1 14/4/1 13/4/1
f 18/4/1 14/4/1 17/4/1
f 21/3/1 20/3/1 19/3/1
f 22/3/1 20/3/1 21/3/1
f 23/3/1 21/3/1 19/3/1
f 24/3/1 21/3/1 23/3/1
f 27/3/1 26/3/1 25/3/1
f 28/3/1 26/3/1 27/3/1
f 29/3/1 26/3/1 28/3/1
f 30/3/1 26/3/1 29/3/1
f 35/3/1 32/3/1 31/3/1
f 36/3/1 32/3/1 35/3/1
f 38/3/1 34/3/1 33/3/1
f 39/3/1 34/3/1 38/3/1
f 40/3/1 38/3/1 37/3/1
f 41/3/1 38/3/1 40/3/1
f 44/3/1 43/3/1 42/3/1
f 45/3/1 43/3/1 44/3/1
f 46/3/1 43/3/1 45/3/1
f 49/3/1 47/3/1 46/3/1
f 50/3/1 49/3/1 48/3/1
f 51/3/1 47/3/1 49/3/1
f 51/3/1 49/3/1 50/3/1
f 54/3/1 47/3/1 51/3/1
f 55/3/1 47/3/1 54/3/1
f 56/3/1 53/3/1 52/3/1
f 57/3/1 53/3/1 56/3/1
f 60/3/1 59/3/1 58/3/1
f 61/3/1 59/3/1 60/3/1
f 64/3/1 63/3/1 62/3/1
f 65/3/1 63/3/1 64/3/1
f 68/4/1 67/4/1 66/4/1
f 69/4/1 67/4/1 68/4/1
f 73/3/1 71/3/1 70/3/1
f 74/3/1 71/3/1 73/3/1
f 76/4/1 73/4/1 72/4/1
f 77/4/1 73/4/1 76/4/1
f 78/4/1 75/4/1 74/4/1
f 79/4/1 75/4/1 78/4/1
f 80/3/2 81/3/2 83/3/2
f 83/3/2 81/3/2 84/3/2
f 82/4/2 83/4/2 86/4/2
f 86/4/2 83/4/2 87/4/2
f 84/4/2 85/4/2 88/4/2
f 88/4/2 85/4/2 89/4/2
f 90/3/2 91/3/2 93/3/2
f 91/3/2 92/3/2 93/3/2
f 93/3/2 92/3/2 94/3/2
f 94/3/2 95/3/2 96/3/2
f 96/3/2 95/3/2 97/3/2
f 90/3/2 93/3/2 98/3/2
f 98/3/2 93/3/2 99/3/2
f 100/4/2 101/4/2 102/4/2
f 102/4/2 101/4/2 103/4/2
f 104/3/2 105/3/2 106/3/2
f 106/3/2 105/3/2 107/3/2
f 107/3/2 105/3/2 108/3/2
f 109/3/2 110/3/2 113/3/2
f 111/3/2 112/3/2 114/3/2
f 114/3/2 112/3/2 115/3/2
f 109/3/2 113/3/2 116/3/2
f 113/3/2 114/3/2 116/3/2
f 116/3/2 114/3/2 117/3/2
f 109/3/2 116/3/2 119/3/2
f 119/3/2 116/3/2 120/3/2
f 118/3/2 119/3/2 121/3/2
f 121/3/2 119/3/2 122/3/2
f 123/3/2 124/3/2 125/3/2
f 125/3/2 124/3/2 126/3/2
f 126/3/2 127/3/2 128/3/2
f 128/3/2 127/3/2 129/3/2
f 129/3/2 130/3/2 132/3/2
f 131/3/2 132/3/2 133/3/2
f 132/3/2 130/3/2 134/3/2
f 133/3/2 132/3/2 134/3/2
f 134/3/2 130/3/2 137/3/2
f 137/3/2 130/3/2 138/3/2
f 135/3/2 136/3/2 139/3/2
f 139/3/2 136/3/2 140/3/2
f 141/3/2 142/3/2 143/3/2
f 143/3/2 142/3/2 144/3/2
f 145/3/2 146/3/2 147/3/2
f 147/3/2 146/3/2 148/3/2
f 149/3/2 150/3/2 152/3/2
f 152/3/2 150/3/2 153/3/2
f 151/4/2 152/4/2 155/4/2
f 155/4/2 152/4/2 156/4/2
f 153/4/2 154/4/2 157/4/2
f 157/4/2 154/4/2 158/4/2
f 159/4/2 160/4/2 161/4/2
f 161/4/2 160/4/2 162/4/2
f 165/3/3 164/3/3 163/3/3
f 166/3/3 164/3/3 165/3/3
f 169/3/3 168/3/3 167/3/3
f 170/3/3 168/3/3 169/3/3
f 173/4/3 172/4/3 171/4/3
f 174/4/3 172/4/3 173/4/3
f 177/3/3 176/3/3 175/3/3
f 179/3/3 177/3/3 175/3/3
f 179/3/3 178/3/3 177/3/3
f 180/3/3 178/3/3 179/3/3
f 184/4/3 182/4/3 181/4/3
f 185/4/3 182/4/3 184/4/3
f 187/3/3 184/3/3 183/3/3
f 188/3/3 184/3/3 187/3/3
f 191/3/3 187/3/3 186/3/3
f 192/3/3 187/3/3 191/3/3
f 193/4/3 189/4/3 188/4/3
f 194/4/3 189/4/3 193/4/3
f 195/3/3 191/3/3 190/3/3
f 196/3/3 191/3/3 195/3/3
f 197/3/3 191/3/3 196/3/3
f 200/3/3 199/3/3 198/3/3
f 201/3/3 199/3/3 200/3/3
f 204/3/3 203/3/3 202/3/3
f 205/3/3 203/3/3 204/3/3
f 211/3/3 207/3/3 206/3/3
f 211/3/3 208/3/3 207/3/3
f 212/3/3 208/3/3 211/3/3
f 213/3/3 210/3/3 209/3/3
f 214/3/3 210/3/3 213/3/3
f 217/3/3 216/3/3 215/3/3
f 218/3/3 216/3/3 217/3/3
f 219/3/3 216/3/3 218/3/3
f 224/3/3 221/3/3 220/3/3
f 225/3/3 221/3/3 224/3/3
f 226/3/3 223/3/3 222/3/3
f 227/3/3 223/3/3 226/3/3
f 229/3/3 228/3/3 227/3/3
f 230/3/3 228/3/3 229/3/3
f 233/4/3 232/4/3 231/4/3
f 234/4/3 232/4/3 233/4/3
f 238/4/3 236/4/3 235/4/3
f 239/4/3 236/4/3 238/4/3
f 240/3/3 238/3/3 237/3/3
f 241/3/3 238/3/3 240/3/3
f 243/4/3 242/4/3 241/4/3
f 244/4/3 242/4/3 243/4/3
f 245/3/4 246/3/4 247/3/4
f 247/3/4 246/3/4 248/3/4
f 249/3/4 250/3/4 251/3/4
f 251/3/4 250/3/4 252/3/4
f 253/3/4 254/3/4 255/3/4
f 255/3/4 254/3/4 256/3/4
f 257/4/4 258/4/4 260/4/4
f 260/4/4 258/4/4 261/4/4
f 259/3/4 260/3/4 263/3/4
f 263/3/4 260/3/4 264/3/4
f 262/3/4 263/3/4 268/3/4
f 268/3/4 263/3/4 269/3/4
f 264/4/4 265/4/4 270/4/4
f 270/4/4 265/4/4 271/4/4
f 266/3/4 267/3/4 272/3/4
f 272/3/4 267/3/4 273/3/4
f 273/3/4 267/3/4 274/3/4
f 274/3/4 267/3/4 275/3/4
f 273/3/4 274/3/4 277/3/4
f 277/3/4 274/3/4 278/3/4
f 276/3/4 277/3/4 279/3/4
f 279/3/4 277/3/4 280/3/4
f 281/3/4 282/3/4 283/3/4
f 283/3/4 282/3/4 284/3/4
f 285/4/4 286/4/4 289/4/4
f 289/4/4 286/4/4 290/4/4
f 287/3/4 288/3/4 291/3/4
f 291/3/4 288/3/4 292/3/4
f 293/3/4 294/3/4 295/3/4
f 295/3/4 294/3/4 296/3/4
f 296/3/4 297/3/4 298/3/4
f 298/3/4 297/3/4 299/3/4
f 300/3/4 301/3/4 302/3/4
f 302/3/4 301/3/4 303/3/4
f 304/3/4 305/3/4 306/3/4
f 306/3/4 305/3/4 307/3/4
f 307/3/4 308/3/4 309/3/4
f 309/3/4 308/3/4 310/3/4
f 311/4/4 312/4/4 314/4/4
f 314/4/4 312/4/4 315/4/4
f 313/3/4 314/3/4 316/3/4
f 316/3/4 314/3/4 317/3/4
f 317/4/4 318/4/4 319/4/4
f 319/4/4 318/4/4 320/4/4
f 321/4/4 322/4/4 323/4/4
f 323/4/4 322/4/4 324/4/4
f 327/3/5 326/3/5 325/3/5
f 328/3/5 326/3/5 327/3/5
f 330/3/5 327/3/5 325/3/5
f 331/1/5 328/1/5 327/1/5
f 331/3/5 327/3/5 330/3/5
f 332/3/5 329/3/5 328/3/5
f 332/1/5 328/1/5 331/1/5
f 333/3/5 329/3/5 332/3/5
f 334/3/5 332/3/5 331/3/5
f 335/3/5 332/3/5 334/3/5
f 338/3/5 337/3/5 336/3/5
f 339/3/5 337/3/5 338/3/5
f 342/3/5 341/3/5 340/3/5
f 343/3/5 341/3/5 342/3/5
f 346/3/5 345/3/5 344/3/5
f 347/3/5 345/3/5 346/3/5
f 350/3/5 349/3/5 348/3/5
f 351/3/5 350/3/5 348/3/5
f 352/3/5 350/3/5 351/3/5
f 358/3/5 354/3/5 353/3/5
f 359/3/5 354/3/5 358/3/5
f 360/3/5 357/3/5 356/3/5
f 360/3/5 356/3/5 355/3/5
f 361/3/5 357/3/5 360/3/5
f 364/3/5 363/3/5 362/3/5
f 365/3/5 363/3/5 364/3/5
f 368/3/5 367/3/5 366/3/5
f 369/3/5 367/3/5 368/3/5
f 372/3/5 371/3/5 370/3/5
f 373/3/5 371/3/5 372/3/5
f 376/3/5 375/3/5 374/3/5
f 377/3/5 375/3/5 376/3/5
f 381/4/5 379/4/5 378/4/5
f 382/4/5 379/4/5 381/4/5
f 384/4/5 381/4/5 380/4/5
f 385/4/5 381/4/5 384/4/5
f 386/4/5 383/4/5 382/4/5
f 387/4/5 383/4/5 386/4/5
f 388/4/5 386/4/5 385/4/5
f 389/4/5 386/4/5 388/4/5
f 392/3/5 391/3/5 390/3/5
f 393/3/5 391/3/5 392/3/5
f 397/4/5 395/4/5 394/4/5
f 398/4/5 395/4/5 397/4/5
f 400/4/5 397/4/5 396/4/5
f 401/4/5 397/4/5 400/4/5
f 402/4/5 399/4/5 398/4/5
f 403/4/5 399/4/5 402/4/5
f 404/4/5 402/4/5 401/4/5
f 405/4/5 402/4/5 404/4/5
f 406/3/6 407/3/6 408/3/6
f 408/3/6 407/3/6 409/3/6
f 410/3/6 411/3/6 413/3/6
f 413/3/6 411/3/6 414/3/6
f 412/3/6 413/3/6 415/3/6
f 415/3/6 413/3/6 416/3/6
f 417/3/6 418/3/6 419/3/6
f 419/3/6 418/3/6 420/3/6
f 421/3/6 422/3/6 423/3/6
f 423/3/6 422/3/6 424/3/6
f 425/3/6 426/3/6 427/3/6
f 427/3/6 426/3/6 428/3/6
f 429/3/6 430/3/6 431/3/6
f 431/3/6 430/3/6 432/3/6
f 433/3/6 434/3/6 435/3/6
f 435/3/6 434/3/6 436/3/6
f 437/3/6 438/3/6 441/3/6
f 441/3/6 438/3/6 442/3/6
f 439/3/6 440/3/6 443/3/6
f 443/3/6 440/3/6 444/3/6
f 445/3/6 446/3/6 447/3/6
f 447/3/6 446/3/6 448/3/6
f 449/3/6 450/3/6 453/3/6
f 453/3/6 450/3/6 454/3/6
f 451/3/6 452/3/6 455/3/6
f 455/3/6 452/3/6 456/3/6
f 457/3/6 458/3/6 459/3/6
f 459/3/6 458/3/6 460/3/6
f 461/3/6 462/3/6 463/3/6
f 463/3/6 462/3/6 464/3/6
f 465/3/6 466/3/6 467/3/6
f 467/3/6 466/3/6 468/3/6
f 469/4/6 470/4/6 472/4/6
f 472/4/6 470/4/6 473/4/6
f 471/4/6 472/4/6 475/4/6
f 472/2/6 473/2/6 476/2/6
f 475/4/6 472/4/6 476/4/6
f 473/4/6 474/4/6 477/4/6
f 476/2/6 473/2/6 477/2/6
f 477/4/6 474/4/6 478/4/6
f 476/4/6 477/4/6 479/4/6
f 479/4/6 477/4/6 480/4/6
f 481/4/6 482/4/6 484/4/6
f 484/4/6 482/4/6 485/4/6
f 483/4/6 484/4/6 487/4/6
f 484/2/6 485/2/6 488/2/6
f 487/4/6 484/4/6 488/4/6
f 485/4/6 486/4/6 489/4/6
f 488/2/6 485/2/6 489/2/6
f 489/4/6 486/4/6 490/4/6
f 488/4/6 489/4/6 491/4/6
f 491/4/6 489/4/6 492/4/6
